<?xml version="1.0" encoding="utf-8"?>
<!-- Generator: Adobe Illustrator 23.1.1, SVG Export Plug-In . SVG Version: 6.00 Build 0)  -->
<svg version="1.1" id="Capa_1" xmlns="http://www.w3.org/2000/svg" xmlns:xlink="http://www.w3.org/1999/xlink" x="0px" y="0px"
	 viewBox="0 0 512 512" style="enable-background:new 0 0 512 512;" xml:space="preserve">
<g>
	<g>
		<path d="M246.9,252.7h-22l-9.7-18.8c-1.2-2.4-4.2-3.3-6.6-2.1c-2.4,1.2-3.3,4.2-2.1,6.6l7.4,14.3h-31.7l7.4-14.3
			c1.2-2.4,0.3-5.4-2.1-6.6c-2.4-1.2-5.4-0.3-6.6,2.1l-9.7,18.8l0,0c0.2-1.5-0.1-3.1-1.3-4.2c-3.8-3.9-8.5-6.9-13.7-8.7l-36.9-12.2
			c10.6-7.9,17.5-20.5,17.5-34.7v-23.2c0-23.9-19.4-43.3-43.3-43.3h-5.8c-23.9,0-43.3,19.4-43.3,43.3v23.2
			c0,13.9,6.6,26.4,16.9,34.3L23,239.9c-13.8,4.4-23,17.2-23,31.7v52.9c0,2.7,2.2,4.9,4.9,4.9h225.5c11.8,0,21.4-9.6,21.4-21.4
			v-50.4C251.8,254.9,249.6,252.7,246.9,252.7z M54.2,169.6c0-18.4,15-33.4,33.4-33.4h5.8c18.4,0,33.4,15,33.4,33.4v1.5
			c-4.4,2-9.2,3-14.1,3c-11,0-21.1-5-27.8-13.7c-0.9-1.2-2.4-1.9-3.9-1.9s-3,0.7-3.9,1.9c-5.7,7.4-13.9,12.1-22.9,13.3
			C54.2,173.7,54.2,169.6,54.2,169.6z M54.2,192.8v-9.2c10.2-1.1,19.5-5.6,26.8-12.8c8.4,8.4,19.7,13.1,31.7,13.1
			c4.8,0,9.6-0.8,14.1-2.3v11.2c0,18.4-15,33.4-33.4,33.4h-5.8C69.2,226.2,54.2,211.2,54.2,192.8z M71.4,232.9
			c5,2.1,10.5,3.2,16.3,3.2h5.8c5.3,0,10.3-0.9,15-2.7c0.3,0.4,0.6,0.7,1,1v7.3c0,10.5-8.6,19-19,19s-19-8.6-19-19L71.4,232.9
			L71.4,232.9z M147.5,319.6H38.4v-18.7c0-2.7-2.2-4.9-4.9-4.9s-4.9,2.2-4.9,4.9v18.7H9.8v-48c0-10.2,6.5-19.3,16.2-22.5l35.5-11.8
			v4.4c0,15.9,12.9,28.9,28.9,28.9s28.9-12.9,28.9-28.9v-3.8l33.7,11.2c2.5,0.8,4.8,2.1,6.8,3.6H149c-2.7,0-4.9,2.2-4.9,4.9V308
			C144.1,312.3,145.3,316.2,147.5,319.6z M242,308c0,6.4-5.2,11.6-11.6,11.6h-56.3h-8.6c-6.4,0-11.6-5.2-11.6-11.6v-45.5H166
			l-0.9,1.7c-1.2,2.4-0.3,5.4,2.1,6.6c0.7,0.4,1.5,0.5,2.3,0.5c1.8,0,3.5-1,4.4-2.7l3.2-6.2h41.8l3.2,6.2c0.9,1.7,2.6,2.7,4.4,2.7
			c0.7,0,1.5-0.2,2.3-0.5c2.4-1.2,3.3-4.2,2.1-6.6l-0.9-1.7h12V308z"/>
	</g>
</g>
<g>
	<g>
		<g>
			<path d="M484.3,173.4v-7.3c0-6.9-5.6-12.6-12.6-12.6h-134c-6.9,0-12.6,5.6-12.6,12.6v7.3c-27.3,50.5-27.7,49-27.7,51.3l0,0v8.4
				c0,7.3,4.2,14,10.9,17.9v112.8c0,2.3,1.9,4.2,4.2,4.2h184.3c2.3,0,4.2-1.9,4.2-4.2V251c6.6-3.8,10.9-10.7,10.9-17.9v-8.4l0,0
				C512,222.3,511.4,223.3,484.3,173.4z M500.7,220.5h-25.9l-14-41.9h16.8L500.7,220.5z M442.5,228.9h25.1v4.2
				c0,6.9-5.6,12.6-12.6,12.6c-6.9,0-12.6-5.6-12.6-12.6v-4.2H442.5z M441.8,220.5l-7-41.9H452l14,41.9L441.8,220.5L441.8,220.5z
				 M333.5,166.1c0-2.3,1.9-4.2,4.2-4.2h134.1c2.3,0,4.2,1.9,4.2,4.2v4.2c-4,0-138.4,0-142.4,0v-4.2H333.5z M434.1,228.9v4.2
				c0,6.9-5.6,12.6-12.6,12.6s-12.6-5.6-12.6-12.6v-4.2H434.1z M408.9,220.5v-41.9h17.4l7,41.9L408.9,220.5L408.9,220.5z
				 M376.2,220.5l7-41.9h17.4v41.9L376.2,220.5L376.2,220.5z M400.6,228.9v4.2c0,6.9-5.6,12.6-12.6,12.6s-12.6-5.6-12.6-12.6v-4.2
				H400.6z M343.5,220.5l14-41.9h17.2l-7,41.9L343.5,220.5L343.5,220.5z M367,228.9v4.2c0,6.9-5.6,12.6-12.6,12.6
				s-12.6-5.6-12.6-12.6v-4.2H367z M331.8,178.6h16.8l-14,41.9h-25.9L331.8,178.6z M305.9,233.1v-4.2h27.7v4.2
				c0,6.6-6.6,12.6-13.8,12.6c-1.8,0-3.7-0.4-5.5-1.1C309.2,242.4,305.9,237.8,305.9,233.1z M383.8,359.6h-41.9v-36h41.9V359.6z
				 M383.8,315.2h-41.9v-36h41.9V315.2z M492.7,359.6H392.2V275c0-2.3-1.9-4.2-4.2-4.2h-50.3c-2.3,0-4.2,1.9-4.2,4.2v84.6h-16.8
				V253.8c1,0.1,1.9,0.2,2.9,0.2c5.5,0,11.1-2.2,15.3-6c0.9-0.8,1.8-1.7,2.5-2.7c3.8,5.3,10,8.7,17,8.7c6.8,0,12.9-3.3,16.8-8.4
				c3.8,5.1,9.9,8.4,16.8,8.4s12.9-3.3,16.8-8.4c3.8,5.1,9.9,8.4,16.8,8.4s12.9-3.3,16.8-8.4c3.8,5.1,9.9,8.4,16.8,8.4
				c7,0,13.2-3.4,17-8.7c0.8,0.9,1.6,1.8,2.5,2.7c4.2,3.8,9.8,6,15.3,6c1,0,2-0.1,2.9-0.2v105.8H492.7z M503.6,233.1
				c0,4.8-3.5,9.5-8.7,11.6c-1.7,0.7-3.4,1-5.2,1c-7.2,0-13.8-6-13.8-12.6v-4.2h27.7V233.1z"/>
		</g>
	</g>
</g>
<g>
	<path d="M452.4,400.2c-2.7-2-6.5-1.5-8.5,1.1c-24.7,32.6-57.5,58.6-94.8,75.2c-38.5,17.1-81.1,23.8-123.2,19.3
		c-68.5-7.3-130-43.2-170.1-98.9l17.6-10.2l-46.2-26.6l0.1,53.3L45.2,403c42.1,59.1,107,97.2,179.4,104.9
		c44.3,4.7,89-2.3,129.4-20.2c39.3-17.5,73.7-44.7,99.5-78.9C455.6,406,455.1,402.2,452.4,400.2z"/>
	<path d="M83.5,80.2c1.7,0.2,3.4-0.3,4.8-1.5c51.1-47,120-69.7,188.9-62.3c53.3,5.7,103.3,29.2,141.7,66.1l-15.6,13.3l50.2,17.8
		l-9.6-52.5l-15.7,13.4C387.8,35,334.9,10.1,278.5,4.1C206.1-3.6,133.7,20.3,80.1,69.6c-2.5,2.2-2.6,6.1-0.3,8.6
		C80.7,79.5,82,80,83.5,80.2z"/>
</g>
</svg>
