<svg height="512pt" viewBox="0 -45 512 512" width="512pt" xmlns="http://www.w3.org/2000/svg"><path d="m90 332c-16.542969 0-30 13.457031-30 30s13.457031 30 30 30 30-13.457031 30-30-13.457031-30-30-30zm0 45c-8.269531 0-15-6.730469-15-15s6.730469-15 15-15 15 6.730469 15 15-6.730469 15-15 15zm0 0"/><path d="m392 332c-16.542969 0-30 13.457031-30 30s13.457031 30 30 30 30-13.457031 30-30-13.457031-30-30-30zm0 45c-8.269531 0-15-6.730469-15-15s6.730469-15 15-15 15 6.730469 15 15-6.730469 15-15 15zm0 0"/><path d="m507.019531 238.863281-57.199219-20.382812-30.828124-65.078125c-8.339844-17.609375-30.132813-31.402344-49.617188-31.402344h-82.375v-114.5c0-4.140625-3.359375-7.5-7.5-7.5h-272c-4.140625 0-7.5 3.359375-7.5 7.5v354.5c0 4.140625 3.359375 7.5 7.5 7.5h22.984375c3.707031 29.554688 28.972656 52.5 59.515625 52.5s55.808594-22.945312 59.515625-52.5h182.96875c3.707031 29.554688 28.972656 52.5 59.515625 52.5s55.808594-22.945312 59.515625-52.5h52.984375c4.140625 0 7.5-3.359375 7.5-7.5v-116.070312c0-3.171876-1.996094-6-4.980469-7.066407zm-137.644531-101.863281c13.6875 0 30.203125 10.453125 36.0625 22.824219l32.160156 67.886719c.851563 1.800781 2.382813 3.1875 4.257813 3.855468l55.144531 19.652344v73.28125h-58.210938c-11.007812-13.703125-27.886718-22.5-46.789062-22.5-30.542969 0-55.808594 22.945312-59.515625 52.5h-45.484375v-217.5zm-239.753906 180h142.378906v37.5h-122.484375c-1.863281-14.867188-9.183594-28.058594-19.894531-37.5zm-114.621094-30h257v15h-257zm83.5-272v38.5c0 4.140625 3.359375 7.5 7.5 7.5s7.5-3.359375 7.5-7.5v-38.5h60v107h-60v-38.5c0-4.140625-3.359375-7.5-7.5-7.5s-7.5 3.359375-7.5 7.5v46c0 4.140625 3.359375 7.5 7.5 7.5h75c4.140625 0 7.5-3.359375 7.5-7.5v-114.5h83.5v257h-257v-257zm-83.5 302h35.378906c-10.710937 9.441406-18.03125 22.632812-19.894531 37.5h-15.484375zm75 90c-24.8125 0-45-20.1875-45-45s20.1875-45 45-45 45 20.1875 45 45-20.1875 45-45 45zm302 0c-24.8125 0-45-20.1875-45-45s20.1875-45 45-45 45 20.1875 45 45-20.1875 45-45 45zm59.515625-52.5c-.65625-5.238281-1.988281-10.269531-3.910156-15h49.394531v15zm0 0"/></svg>