<?xml version="1.0" encoding="utf-8"?>
<!-- Generator: Adobe Illustrator 23.1.1, SVG Export Plug-In . SVG Version: 6.00 Build 0)  -->
<svg version="1.1" id="Capa_1" xmlns="http://www.w3.org/2000/svg" xmlns:xlink="http://www.w3.org/1999/xlink" x="0px" y="0px"
	 viewBox="0 0 512 512" style="enable-background:new 0 0 512 512;" xml:space="preserve">
<style type="text/css">
	.st0{fill:#17100D;}
</style>
<g>
	<g>
		<path d="M416,426c-5.5,0-10,4.5-10,10s4.5,10,10,10s10-4.5,10-10S421.5,426,416,426z"/>
	</g>
</g>
<g>
	<g>
		<path d="M446,47.4V30c0-16.5-13.5-30-30-30H96C79.5,0,66,13.5,66,30v17.4C0.8,167.9,0,164.3,0,170c0,0,0,0,0,0v20
			c0,17.3,10,33.5,26,42.6V502c0,5.5,4.5,10,10,10h440c5.5,0,10-4.5,10-10V232.6c15.8-9.2,26-25.5,26-42.6v-20c0,0,0,0,0,0
			C512,164.3,510.6,166.7,446,47.4z M485.1,160h-61.9L389.9,60h40.2L485.1,160z M346,180h60v10c0,16.5-13.5,30-30,30s-30-13.5-30-30
			V180z M344.5,160L327.8,60h41l33.3,100H344.5z M86,30c0-5.5,4.5-10,10-10h320c5.5,0,10,4.5,10,10v10c-9.5,0-330.4,0-340,0V30z
			 M326,180v10c0,16.5-13.5,30-30,30s-30-13.5-30-30v-10H326z M266,160V60h41.5l16.7,100H266z M187.8,160l16.7-100H246v100H187.8z
			 M246,180v10c0,16.5-13.5,30-30,30s-30-13.5-30-30v-10H246z M109.9,160l33.3-100h41l-16.7,100H109.9z M166,180v10
			c0,16.5-13.5,30-30,30s-30-13.5-30-30v-10H166z M81.9,60h40.2L88.8,160H26.9L81.9,60z M20,190v-10h66v10c0,15.7-15.7,30-33,30
			c-4.4,0-8.9-0.9-13.1-2.7C28,212.2,20,201.2,20,190z M206,492H106v-86h100V492z M206,386H106v-86h100V386z M466,492H226V290
			c0-5.5-4.5-10-10-10H96c-5.5,0-10,4.5-10,10v202H46V239.5c2.3,0.3,4.7,0.5,7,0.5c13.2,0,26.5-5.2,36.5-14.3c2.2-2,4.2-4.2,6-6.4
			c9.1,12.5,23.9,20.7,40.5,20.7c16.3,0,30.9-7.9,40-20c9.1,12.2,23.7,20,40,20s30.9-7.9,40-20c9.1,12.2,23.7,20,40,20
			s30.9-7.9,40-20c9.1,12.2,23.7,20,40,20c16.6,0,31.4-8.2,40.5-20.7c1.8,2.3,3.8,4.4,6,6.4c10,9.1,23.3,14.3,36.5,14.3
			c2.3,0,4.7-0.2,7-0.5V492z M492,190c0,11.5-8.3,22.6-20.7,27.6c-4,1.6-8.2,2.4-12.3,2.4c-17.3,0-33-14.3-33-30v-10h66V190z"/>
	</g>
</g>
<g>
	<g>
		<path d="M376,426h-80c-5.5,0-10,4.5-10,10s4.5,10,10,10h80c5.5,0,10-4.5,10-10S381.5,426,376,426z"/>
	</g>
</g>
<g>
	<path class="st0" d="M344.3,314.7c-4.1-3.1-21.9,13.3-32.7,31.1c-10.8,17.8,15.9,17,15.9,17C358.6,358.7,348.4,317.6,344.3,314.7z
		 M334.7,348.3c-4.1,0-7.4-3.3-7.4-7.4s3.3-7.4,7.4-7.4c4.1,0,7.4,3.3,7.4,7.4S338.8,348.3,334.7,348.3z"/>
	<path class="st0" d="M376.6,314.7c-4.1,3.1-14.1,44.2,16.8,47.8c0,0,26.8,0.8,15.9-17C398.5,327.8,380.7,311.7,376.6,314.7z
		 M384.6,348.3L384.6,348.3c-4.1,0-7.4-3.3-7.4-7.4s3.3-7.4,7.4-7.4s7.4,3.3,7.4,7.4S388.7,348.3,384.6,348.3z"/>
	<path class="st0" d="M375.2,385.7c-4.1,0.4-8.2,0.8-12.3,0.8c0.6-1.6,0.8-3.5,0.8-5.3c0-1.2-0.2-2.7-0.4-3.9
		c6.3-0.4,11.4-6.1,11.4-10.8c0-4.9-5.3-3.7-12.1-3.7s-12.1-1.2-12.1,3.7c0,4.7,5.1,10.4,11.4,10.8c-0.2,1.2-0.4,2.7-0.4,3.9
		c0,1.8,0.2,3.7,0.8,5.3c-4.1,0-8.2-0.2-12.3-0.8c-2-0.2-4.1-0.6-6.1-1.2c-2-0.4-4.1-1.4-5.7-2.5c1.4,1.6,3.1,3.1,5.1,4.1
		c2,1,4.1,1.6,6.1,2.2c8.6,2,17.4,2,26,0c2-0.6,4.3-1.2,6.1-2.2c2-0.8,3.7-2.2,5.1-4.1c-1.8,1.2-3.7,2-5.7,2.5
		C379.3,385.1,377.2,385.5,375.2,385.7z"/>
	<path class="st0" d="M439.8,294.3c0-17.6-14.3-31.9-31.9-31.9c-10.8,0-20.2,5.3-26,13.5c-6.5-2.2-13.7-3.5-21.3-3.5
		c-7.2,0-14.1,1.2-20.4,3.3c-5.7-8-15.1-13.1-25.8-13.1c-17.6,0-31.9,14.3-31.9,31.9c0,9.6,4.1,18,10.8,23.9
		c-11,21.9-13.1,46.4-3.3,60.5c21.1,29.8,70.5,30.5,70.5,30.5s49.5-0.6,70.5-30.5c9.8-13.9,8-38-2.9-59.9
		C435.3,313.1,439.8,304.1,439.8,294.3z M424.1,380.4c-19,26.8-63.4,27.4-63.4,27.4s-44.4-0.6-63.4-27.4c-9.4-13.3-7-36.4,4.1-56.8
		l0,0c0.6-1,1-1.8,1.6-2.9c0-0.2,0.2-0.4,0.2-0.4c0.6-1,1.2-1.8,1.6-2.7c0-0.2,0.2-0.2,0.2-0.4c2.5-3.9,5.5-7.6,8.6-10.8
		c0.2-0.2,0.2-0.4,0.4-0.4c0.8-0.8,1.4-1.4,2.2-2.2c0.2-0.2,0.4-0.4,0.6-0.6c0.8-0.8,1.6-1.4,2.5-2.2c0,0,0,0,0.2,0
		c2.7-2.2,5.5-4.5,8.6-6.3c0.2,0,0.2-0.2,0.4-0.2c0.8-0.6,1.8-1,2.9-1.6c0.2-0.2,0.4-0.2,0.6-0.4c1-0.4,1.8-1,2.9-1.4
		c0.2,0,0.4-0.2,0.4-0.2c3.3-1.4,6.7-2.9,10.2-3.7c4.9-1.2,9.8-2,15.1-2c5.7,0,11,0.8,16.2,2.2c12.1,3.5,22.3,10.4,30.7,19.2
		c0,0,0,0,0.2,0.2c4.1,4.5,7.8,9.2,10.6,14.3c0,0,0,0,0,0.2c0.6,1,1.2,2,1.6,3.1C431,344.2,433.3,367.3,424.1,380.4z"/>
</g>
</svg>
