<svg height="512pt" viewBox="-23 0 512 512" width="512pt" xmlns="http://www.w3.org/2000/svg"><path d="m458.964844 511.855469c.128906-.027344.25-.058594.375-.09375.113281-.027344.226562-.050781.335937-.085938.121094-.035156.238281-.082031.359375-.125.113282-.039062.222656-.078125.332032-.121093.113281-.046876.222656-.101563.332031-.152344.109375-.054688.222656-.105469.335937-.164063.105469-.054687.203125-.121093.304688-.179687.109375-.066406.21875-.125.324218-.199219.109376-.074219.214844-.15625.320313-.234375.089844-.066406.179687-.128906.269531-.199219.179688-.148437.347656-.304687.511719-.464843.226563-.230469.386719-.402344.535156-.582032.070313-.089844.132813-.179687.199219-.269531.078125-.105469.160156-.210937.234375-.320313.074219-.109374.132813-.21875.199219-.328124.0625-.101563.125-.199219.179687-.300782.058594-.113281.113281-.230468.164063-.34375.050781-.105468.105468-.210937.152344-.320312.046874-.113282.082031-.230469.125-.34375.039062-.117188.085937-.230469.121093-.351563.035157-.113281.058594-.230469.089844-.347656.03125-.121094.0625-.238281.089844-.363281.027343-.136719.042969-.273438.058593-.40625.015626-.109375.035157-.210938.046876-.320313.023437-.246093.039062-.496093.039062-.742187v-376.996094c0-4.144531-3.359375-7.5-7.5-7.5h-82.5v-30c0-49.625-40.375-90-90-90-18.863281 0-37.28125 5.988281-52.515625 16.933594-14.785156-10.652344-32.914063-16.933594-52.484375-16.933594-49.625 0-90 40.375-90 90v30h-82.5c-4.140625 0-7.5 3.355469-7.5 7.5v377c0 4.144531 3.359375 7.5 7.5 7.5h450c.246094 0 .492188-.011719.738281-.035156.113281-.011719.222657-.035156.335938-.050782.128906-.019531.261719-.035156.390625-.058593zm-8.964844-25.460938-37.5-37.5v-144.144531c0-4.144531-3.359375-7.5-7.5-7.5s-7.5 3.355469-7.5 7.5v144.144531l-37.5 37.5v-351.394531h37.5v139.75c0 4.144531 3.359375 7.5 7.5 7.5s7.5-3.355469 7.5-7.5v-139.75h37.5zm-45-23.789062 34.394531 34.394531h-68.789062zm-135-342.605469v-30c0-13.695312-3.082031-26.6875-8.578125-38.320312 7.050781-4.335938 15.234375-6.679688 23.578125-6.679688 24.8125 0 45 20.1875 45 45v30zm90-30v30h-15v-30c0-33.085938-26.914062-60-60-60-10.988281 0-21.765625 3.054688-31.09375 8.703125-2.890625-4.152344-6.121094-8.050781-9.652344-11.652344 12.074219-7.808593 26.253906-12.050781 40.746094-12.050781 41.355469 0 75 33.644531 75 75zm-255 0c0-41.355469 33.644531-75 75-75s75 33.644531 75 75v67.5c0 4.136719-3.363281 7.5-7.5 7.5s-7.5-3.363281-7.5-7.5v-67.5c0-18.472656-8.398438-35.019531-21.570312-46.035156-.316407-.304688-.660157-.585938-1.035157-.835938-10.265625-8.207031-23.261719-13.128906-37.394531-13.128906-33.085938 0-60 26.914062-60 60v67.5c0 4.136719-3.363281 7.5-7.5 7.5s-7.5-3.363281-7.5-7.5zm30 30v-30c0-24.8125 20.1875-45 45-45 8.640625 0 16.714844 2.453125 23.578125 6.691406-5.621094 11.941406-8.578125 25.050782-8.578125 38.308594v30zm75-30c0-9.539062 1.835938-18.988281 5.351562-27.792969 6.035157 7.65625 9.648438 17.308594 9.648438 27.792969v30h-15zm-195 45h75v22.5c0 12.40625 10.09375 22.5 22.5 22.5s22.5-10.09375 22.5-22.5v-22.5h90v22.5c0 12.40625 10.09375 22.5 22.5 22.5s22.5-10.09375 22.5-22.5v-22.5h75v362h-330zm0 0"/></svg>