<?xml version="1.0" encoding="utf-8"?>
<!-- Generator: Adobe Illustrator 23.1.1, SVG Export Plug-In . SVG Version: 6.00 Build 0)  -->
<svg version="1.1" id="Capa_1" xmlns="http://www.w3.org/2000/svg" xmlns:xlink="http://www.w3.org/1999/xlink" x="0px" y="0px"
	 viewBox="0 0 512 512" style="enable-background:new 0 0 512 512;" xml:space="preserve">
<style type="text/css">
	.st0{fill:#17100D;}
</style>
<g>
	<g>
		<path d="M75.1,399.8c-1.9-1.9-4.4-2.9-7.1-2.9s-5.2,1.1-7.1,2.9c-1.9,1.9-2.9,4.4-2.9,7.1s1.1,5.2,2.9,7.1
			c1.9,1.9,4.4,2.9,7.1,2.9s5.2-1.1,7.1-2.9c1.9-1.9,2.9-4.4,2.9-7.1S77,401.6,75.1,399.8z"/>
	</g>
</g>
<g>
	<g>
		<path d="M502,356h-44.8l-19.7-38.2c-2.5-4.9-8.6-6.8-13.5-4.3s-6.8,8.6-4.3,13.5l15,29.1h-64.4l15-29.1c2.5-4.9,0.6-10.9-4.3-13.5
			c-4.9-2.5-10.9-0.6-13.5,4.3L347.8,356h-0.1c0.5-3-0.3-6.3-2.6-8.6c-7.7-8-17.3-14.1-27.9-17.7l-75-24.9
			c21.6-16,35.6-41.7,35.6-70.6V187c0-48.5-39.5-88-88-88h-11.7c-48.5,0-88,39.5-88,88v47.2c0,28.3,13.5,53.6,34.3,69.7l-77.8,25.8
			C18.8,339,0,365,0,394.4V502c0,5.5,4.5,10,10,10h458.5c24,0,43.5-19.5,43.5-43.5V366C512,360.5,507.5,356,502,356z M110.2,187.1
			c0-37.5,30.5-68,68-68h11.7c37.5,0,68,30.5,68,68v3c-9,4-18.8,6-28.7,6c-22.3,0-42.9-10.1-56.5-27.8c-1.9-2.5-4.8-3.9-7.9-3.9
			s-6,1.4-7.9,3.9c-11.6,15-28.2,24.6-46.5,27.1C110.2,195.4,110.2,187.1,110.2,187.1z M110.2,234.2v-18.7
			c20.7-2.2,39.7-11.4,54.5-26c17,17,40,26.6,64.5,26.6c9.8,0,19.5-1.6,28.7-4.6v22.8c0,37.5-30.5,68-68,68h-11.7
			C140.7,302.2,110.2,271.7,110.2,234.2z M145.1,315.8c10.2,4.2,21.4,6.5,33.1,6.5h11.7c10.7,0,21-1.9,30.5-5.5
			c0.6,0.8,1.3,1.5,2.1,2.1v14.8c0,21.3-17.4,38.7-38.7,38.7s-38.7-17.4-38.7-38.7L145.1,315.8L145.1,315.8z M299.9,492H78.1v-38
			c0-5.5-4.5-10-10-10s-10,4.5-10,10v38H20v-97.6c0-20.8,13.3-39.2,33-45.7l72.1-23.9v8.9c0,32.4,26.3,58.7,58.7,58.7
			s58.7-26.3,58.7-58.7V326l68.5,22.7c5,1.7,9.7,4.2,13.9,7.3H303c-5.5,0-10,4.5-10,10v102.5C293,477.2,295.5,485.2,299.9,492z
			 M492,468.5c0,13-10.5,23.5-23.5,23.5H354h-17.5c-13,0-23.5-10.5-23.5-23.5V376h24.5l-1.8,3.4c-2.5,4.9-0.6,10.9,4.3,13.5
			c1.5,0.8,3,1.1,4.6,1.1c3.6,0,7.1-2,8.9-5.4L360,376h85l6.5,12.6c1.8,3.4,5.3,5.4,8.9,5.4c1.5,0,3.1-0.4,4.6-1.1
			c4.9-2.5,6.8-8.6,4.3-13.5l-1.8-3.4H492V468.5z"/>
	</g>
</g>
<g>
	<g>
		<path d="M402.5,196.1c-5.5,0-10,4.5-10,10v44.5c0,5.5,4.5,10,10,10s10-4.5,10-10v-44.5C412.5,200.5,408,196.1,402.5,196.1z"/>
	</g>
</g>
<g>
	<g>
		<path d="M409.6,281c-1.9-1.9-4.4-2.9-7.1-2.9c-2.6,0-5.2,1.1-7.1,2.9c-1.9,1.9-2.9,4.4-2.9,7.1s1.1,5.2,2.9,7.1
			c1.9,1.9,4.4,2.9,7.1,2.9c2.6,0,5.2-1.1,7.1-2.9c1.9-1.9,2.9-4.4,2.9-7.1S411.4,282.9,409.6,281z"/>
	</g>
</g>
<g>
	<g>
		<path d="M355,417c-5.5,0-10,4.5-10,10v27.4c0,5.5,4.5,10,10,10s10-4.5,10-10V427C365,421.5,360.5,417,355,417z"/>
	</g>
</g>
<g>
	<g>
		<path d="M402.5,417c-5.5,0-10,4.5-10,10v27.4c0,5.5,4.5,10,10,10s10-4.5,10-10V427C412.5,421.5,408,417,402.5,417z"/>
	</g>
</g>
<g>
	<g>
		<path d="M450,417c-5.5,0-10,4.5-10,10v27.4c0,5.5,4.5,10,10,10s10-4.5,10-10V427C460,421.5,455.5,417,450,417z"/>
	</g>
</g>
<g>
	<path class="st0" d="M384.5,66.8c-4.4-3.3-23.4,14.2-34.9,33.2s17,18.1,17,18.1C399.8,113.7,388.9,69.9,384.5,66.8z M374.3,102.6
		c-4.4,0-7.9-3.5-7.9-7.9c0-4.4,3.5-7.9,7.9-7.9c4.4,0,7.9,3.5,7.9,7.9C382.1,99.1,378.6,102.6,374.3,102.6z"/>
	<path class="st0" d="M419,66.8c-4.4,3.3-15.1,47.2,17.9,51.1c0,0,28.6,0.9,17-18.1C442.4,80.8,423.4,63.5,419,66.8z M427.5,102.6
		L427.5,102.6c-4.4,0-7.9-3.5-7.9-7.9c0-4.4,3.5-7.9,7.9-7.9c4.4,0,7.9,3.5,7.9,7.9C435.4,99.1,431.9,102.6,427.5,102.6z"/>
	<path class="st0" d="M417.5,142.6c-4.4,0.4-8.7,0.9-13.1,0.9c0.7-1.7,0.9-3.7,0.9-5.7c0-1.3-0.2-2.8-0.4-4.1
		c6.8-0.4,12.2-6.6,12.2-11.6c0-5.2-5.7-3.9-12.9-3.9s-12.9-1.3-12.9,3.9c0,5,5.5,11.1,12.2,11.6c-0.2,1.3-0.4,2.8-0.4,4.1
		c0,2,0.2,3.9,0.9,5.7c-4.4,0-8.7-0.2-13.1-0.9c-2.2-0.2-4.4-0.7-6.6-1.3c-2.2-0.4-4.4-1.5-6.1-2.6c1.5,1.7,3.3,3.3,5.5,4.4
		c2.2,1.1,4.4,1.7,6.6,2.4c9.2,2.2,18.6,2.2,27.7,0c2.2-0.7,4.6-1.3,6.6-2.4c2.2-0.9,3.9-2.4,5.5-4.4c-2,1.3-3.9,2.2-6.1,2.6
		C421.9,141.9,419.7,142.3,417.5,142.6z"/>
	<path class="st0" d="M486.5,45c0-18.8-15.3-34.1-34.1-34.1c-11.6,0-21.6,5.7-27.7,14.4c-7-2.4-14.6-3.7-22.7-3.7
		c-7.6,0-15.1,1.3-21.8,3.5c-6.1-8.5-16.2-14-27.5-14c-18.8,0-34.1,15.3-34.1,34.1c0,10.3,4.4,19.2,11.6,25.5
		c-11.8,23.4-14,49.6-3.5,64.6c22.5,31.9,75.3,32.5,75.3,32.5s52.8-0.7,75.3-32.5c10.5-14.8,8.5-40.6-3.1-64
		C481.7,65.1,486.5,55.4,486.5,45z M469.7,136.9c-20.3,28.6-67.7,29.3-67.7,29.3s-47.4-0.7-67.7-29.3c-10-14.2-7.4-38.9,4.4-60.7
		l0,0c0.7-1.1,1.1-2,1.7-3.1c0-0.2,0.2-0.4,0.2-0.4c0.7-1.1,1.3-2,1.7-2.8c0-0.2,0.2-0.2,0.2-0.4c2.6-4.1,5.9-8.1,9.2-11.6
		c0.2-0.2,0.2-0.4,0.4-0.4c0.9-0.9,1.5-1.5,2.4-2.4c0.2-0.2,0.4-0.4,0.7-0.7c0.9-0.9,1.7-1.5,2.6-2.4c0,0,0,0,0.2,0
		c2.8-2.4,5.9-4.8,9.2-6.8c0.2,0,0.2-0.2,0.4-0.2c0.9-0.7,2-1.1,3.1-1.7c0.2-0.2,0.4-0.2,0.7-0.4c1.1-0.4,2-1.1,3.1-1.5
		c0.2,0,0.4-0.2,0.4-0.2c3.5-1.5,7.2-3.1,10.9-3.9c5.2-1.3,10.5-2.2,16.2-2.2c6.1,0,11.8,0.9,17.2,2.4c12.9,3.7,23.8,11.1,32.8,20.5
		c0,0,0,0,0.2,0.2c4.4,4.8,8.3,9.8,11.4,15.3c0,0,0,0,0,0.2c0.7,1.1,1.3,2.2,1.7,3.3C477.1,98.2,479.5,122.9,469.7,136.9z"/>
</g>
</svg>
