<?xml version="1.0" encoding="utf-8"?>
<!-- Generator: Adobe Illustrator 23.1.1, SVG Export Plug-In . SVG Version: 6.00 Build 0)  -->
<svg version="1.1" id="Capa_1" xmlns="http://www.w3.org/2000/svg" xmlns:xlink="http://www.w3.org/1999/xlink" x="0px" y="0px"
	 viewBox="0 0 512 512" style="enable-background:new 0 0 512 512;" xml:space="preserve">
<style type="text/css">
	.st0{fill:#17100D;}
</style>
<g>
	<g>
		<path d="M75.1,399.8c-1.9-1.9-4.4-2.9-7.1-2.9s-5.2,1.1-7.1,2.9c-1.9,1.9-2.9,4.4-2.9,7.1s1.1,5.2,2.9,7.1
			c1.9,1.9,4.4,2.9,7.1,2.9s5.2-1.1,7.1-2.9c1.9-1.9,2.9-4.4,2.9-7.1S77,401.6,75.1,399.8z"/>
	</g>
</g>
<g>
	<g>
		<path d="M502,356h-44.8l-19.7-38.2c-2.5-4.9-8.6-6.8-13.5-4.3c-4.9,2.5-6.8,8.6-4.3,13.5l15,29.1h-64.4l15-29.1
			c2.5-4.9,0.6-10.9-4.3-13.5c-4.9-2.5-10.9-0.6-13.5,4.3L347.8,356h-0.1c0.5-3-0.3-6.3-2.6-8.6c-7.7-8-17.3-14.1-27.9-17.7
			l-75-24.9c21.6-16,35.6-41.7,35.6-70.6v-47.2c0-48.5-39.5-88-88-88h-11.7c-48.5,0-88,39.5-88,88v47.2c0,28.3,13.5,53.6,34.3,69.7
			l-77.8,25.8C18.8,339,0,365,0,394.4V502c0,5.5,4.5,10,10,10h458.5c24,0,43.5-19.5,43.5-43.5V366C512,360.5,507.5,356,502,356z
			 M110.2,187.1c0-37.5,30.5-68,68-68h11.7c37.5,0,68,30.5,68,68v3c-9,4-18.8,6-28.7,6c-22.3,0-42.9-10.1-56.5-27.8
			c-1.9-2.5-4.8-3.9-7.9-3.9s-6,1.4-7.9,3.9c-11.6,15-28.2,24.6-46.5,27.1C110.2,195.4,110.2,187.1,110.2,187.1z M110.2,234.2v-18.7
			c20.7-2.2,39.7-11.4,54.5-26c17,17,40,26.6,64.5,26.6c9.8,0,19.5-1.6,28.7-4.6v22.8c0,37.5-30.5,68-68,68h-11.7
			C140.7,302.2,110.2,271.7,110.2,234.2z M145.1,315.8c10.2,4.2,21.4,6.5,33.1,6.5h11.7c10.7,0,21-1.9,30.5-5.5
			c0.6,0.8,1.3,1.5,2.1,2.1v14.8c0,21.3-17.4,38.7-38.7,38.7s-38.7-17.4-38.7-38.7L145.1,315.8L145.1,315.8z M299.9,492H78.1v-38
			c0-5.5-4.5-10-10-10s-10,4.5-10,10v38H20v-97.6c0-20.8,13.3-39.2,33-45.7l72.1-23.9v8.9c0,32.4,26.3,58.7,58.7,58.7
			s58.7-26.3,58.7-58.7V326l68.5,22.7c5,1.7,9.7,4.2,13.9,7.3H303c-5.5,0-10,4.5-10,10v102.5C293,477.2,295.5,485.2,299.9,492z
			 M492,468.5c0,13-10.5,23.5-23.5,23.5H354h-17.5c-13,0-23.5-10.5-23.5-23.5V376h24.5l-1.8,3.4c-2.5,4.9-0.6,10.9,4.3,13.5
			c1.5,0.8,3,1.1,4.6,1.1c3.6,0,7.1-2,8.9-5.4L360,376H445l6.5,12.6c1.8,3.4,5.3,5.4,8.9,5.4c1.5,0,3.1-0.4,4.6-1.1
			c4.9-2.5,6.8-8.6,4.3-13.5l-1.8-3.4H492V468.5z"/>
	</g>
</g>
<g>
	<g>
		<path d="M402.5,0c-46.3,0-84,37.7-84,84s37.7,84,84,84s84-37.7,84-84S448.8,0,402.5,0z M402.5,148c-35.3,0-64-28.7-64-64
			s28.7-64,64-64s64,28.7,64,64S437.8,148,402.5,148z"/>
	</g>
</g>
<g>
	<g>
		<path d="M402.5,196.1c-5.5,0-10,4.5-10,10v44.5c0,5.5,4.5,10,10,10s10-4.5,10-10v-44.5C412.5,200.5,408,196.1,402.5,196.1z"/>
	</g>
</g>
<g>
	<g>
		<path d="M409.6,281c-1.9-1.9-4.4-2.9-7.1-2.9c-2.6,0-5.2,1.1-7.1,2.9c-1.9,1.9-2.9,4.4-2.9,7.1s1.1,5.2,2.9,7.1
			c1.9,1.9,4.4,2.9,7.1,2.9c2.6,0,5.2-1.1,7.1-2.9c1.9-1.9,2.9-4.4,2.9-7.1C412.5,285.4,411.4,282.9,409.6,281z"/>
	</g>
</g>
<g>
	<g>
		<path d="M355,417c-5.5,0-10,4.5-10,10v27.4c0,5.5,4.5,10,10,10s10-4.5,10-10V427C365,421.5,360.5,417,355,417z"/>
	</g>
</g>
<g>
	<g>
		<path d="M402.5,417c-5.5,0-10,4.5-10,10v27.4c0,5.5,4.5,10,10,10s10-4.5,10-10V427C412.5,421.5,408,417,402.5,417z"/>
	</g>
</g>
<g>
	<g>
		<path d="M450,417c-5.5,0-10,4.5-10,10v27.4c0,5.5,4.5,10,10,10s10-4.5,10-10V427C460,421.5,455.5,417,450,417z"/>
	</g>
</g>
<g>
	<path class="st0" d="M394.3,73.7c-2-1.5-10.7,6.5-16,15.2s7.8,8.3,7.8,8.3C401.3,95.2,396.3,75.1,394.3,73.7z M389.6,90.1
		c-2,0-3.6-1.6-3.6-3.6s1.6-3.6,3.6-3.6s3.6,1.6,3.6,3.6S391.6,90.1,389.6,90.1z"/>
	<path class="st0" d="M410.1,73.7c-2,1.5-6.9,21.6,8.2,23.4c0,0,13.1,0.4,7.8-8.3C420.8,80.1,412.1,72.2,410.1,73.7z M414,90.1
		L414,90.1c-2,0-3.6-1.6-3.6-3.6s1.6-3.6,3.6-3.6s3.6,1.6,3.6,3.6S416,90.1,414,90.1z"/>
	<path class="st0" d="M409.4,108.4c-2,0.2-4,0.4-6,0.4c0.3-0.8,0.4-1.7,0.4-2.6c0-0.6-0.1-1.3-0.2-1.9c3.1-0.2,5.6-3,5.6-5.3
		c0-2.4-2.6-1.8-5.9-1.8s-5.9-0.6-5.9,1.8c0,2.3,2.5,5.1,5.6,5.3c-0.1,0.6-0.2,1.3-0.2,1.9c0,0.9,0.1,1.8,0.4,2.6c-2,0-4-0.1-6-0.4
		c-1-0.1-2-0.3-3-0.6c-1-0.2-2-0.7-2.8-1.2c0.7,0.8,1.5,1.5,2.5,2c1,0.5,2,0.8,3,1.1c4.2,1,8.5,1,12.7,0c1-0.3,2.1-0.6,3-1.1
		c1-0.4,1.8-1.1,2.5-2c-0.9,0.6-1.8,1-2.8,1.2C411.4,108.1,410.4,108.3,409.4,108.4z"/>
	<path class="st0" d="M441,63.7c0-8.6-7-15.6-15.6-15.6c-5.3,0-9.9,2.6-12.7,6.6c-3.2-1.1-6.7-1.7-10.4-1.7c-3.5,0-6.9,0.6-10,1.6
		c-2.8-3.9-7.4-6.4-12.6-6.4c-8.6,0-15.6,7-15.6,15.6c0,4.7,2,8.8,5.3,11.7c-5.4,10.7-6.4,22.7-1.6,29.6
		c10.3,14.6,34.5,14.9,34.5,14.9s24.2-0.3,34.5-14.9c4.8-6.8,3.9-18.6-1.4-29.3C438.8,72.9,441,68.5,441,63.7z M433.3,105.8
		c-9.3,13.1-31,13.4-31,13.4s-21.7-0.3-31-13.4c-4.6-6.5-3.4-17.8,2-27.8l0,0c0.3-0.5,0.5-0.9,0.8-1.4c0-0.1,0.1-0.2,0.1-0.2
		c0.3-0.5,0.6-0.9,0.8-1.3c0-0.1,0.1-0.1,0.1-0.2c1.2-1.9,2.7-3.7,4.2-5.3c0.1-0.1,0.1-0.2,0.2-0.2c0.4-0.4,0.7-0.7,1.1-1.1
		c0.1-0.1,0.2-0.2,0.3-0.3c0.4-0.4,0.8-0.7,1.2-1.1c0,0,0,0,0.1,0c1.3-1.1,2.7-2.2,4.2-3.1c0.1,0,0.1-0.1,0.2-0.1
		c0.4-0.3,0.9-0.5,1.4-0.8c0.1-0.1,0.2-0.1,0.3-0.2c0.5-0.2,0.9-0.5,1.4-0.7c0.1,0,0.2-0.1,0.2-0.1c1.6-0.7,3.3-1.4,5-1.8
		c2.4-0.6,4.8-1,7.4-1c2.8,0,5.4,0.4,7.9,1.1c5.9,1.7,10.9,5.1,15,9.4c0,0,0,0,0.1,0.1c2,2.2,3.8,4.5,5.2,7c0,0,0,0,0,0.1
		c0.3,0.5,0.6,1,0.8,1.5C436.7,88.1,437.8,99.4,433.3,105.8z"/>
</g>
</svg>
