<svg xmlns="http://www.w3.org/2000/svg" width="19.793" height="19.789" viewBox="0 0 19.793 19.789">
  <path id="instagram-brands" d="M9.824,36.646A5.074,5.074,0,1,0,14.9,41.719,5.066,5.066,0,0,0,9.824,36.646Zm0,8.372a3.3,3.3,0,1,1,3.3-3.3A3.3,3.3,0,0,1,9.824,45.018Zm6.465-8.58A1.183,1.183,0,1,1,15.1,35.255,1.181,1.181,0,0,1,16.288,36.438Zm3.36,1.2a5.856,5.856,0,0,0-1.6-4.146,5.9,5.9,0,0,0-4.146-1.6c-1.634-.093-6.531-.093-8.165,0a5.886,5.886,0,0,0-4.146,1.594,5.875,5.875,0,0,0-1.6,4.146C-.1,39.269-.1,44.166-.005,45.8a5.856,5.856,0,0,0,1.6,4.146,5.9,5.9,0,0,0,4.146,1.6c1.634.093,6.531.093,8.165,0a5.856,5.856,0,0,0,4.146-1.6,5.9,5.9,0,0,0,1.6-4.146C19.741,44.166,19.741,39.273,19.649,37.639Zm-2.111,9.913a3.339,3.339,0,0,1-1.881,1.881c-1.3.517-4.394.4-5.833.4s-4.535.115-5.833-.4A3.339,3.339,0,0,1,2.11,47.552c-.517-1.3-.4-4.394-.4-5.833s-.115-4.535.4-5.833a3.339,3.339,0,0,1,1.881-1.881c1.3-.517,4.394-.4,5.833-.4s4.535-.115,5.833.4a3.339,3.339,0,0,1,1.881,1.881c.517,1.3.4,4.394.4,5.833S18.055,46.254,17.538,47.552Z" transform="translate(0.075 -31.825)" fill="#363434"/>
</svg>
