<svg xmlns="http://www.w3.org/2000/svg" width="238.847" height="120.674" viewBox="0 0 238.847 120.674">
  <g id="Grupo_1732" data-name="Grupo 1732" transform="translate(-148.603 -2466.382)">
    <g id="Grupo_51" data-name="Grupo 51" transform="translate(225.401 2466.382)">
      <ellipse id="Elipse_1" data-name="Elipse 1" cx="17.453" cy="17.453" rx="17.453" ry="17.453" fill="#17100d"/>
      <ellipse id="Elipse_7" data-name="Elipse 7" cx="17.453" cy="17.453" rx="17.453" ry="17.453" transform="translate(50.833)" fill="#17100d"/>
      <path id="Trazado_11" data-name="Trazado 11" d="M179.563,237.656c32.181,0,50.059,41.776,38.538,58.1S179.563,312.4,179.563,312.4s-27.015-.326-38.537-16.645S147.383,237.656,179.563,237.656Z" transform="translate(-136.869 -232.237)" fill="#17100d"/>
      <path id="Trazado_12" data-name="Trazado 12" d="M179.781,244.765c28.913,0,44.974,37.533,34.623,52.194s-34.623,14.955-34.623,14.955-24.272-.293-34.622-14.955S150.869,244.765,179.781,244.765Z" transform="translate(-137.087 -232.582)" fill="#fff"/>
      <path id="Trazado_13" data-name="Trazado 13" d="M182.608,289.543c-3.639,0-6.588-.639-6.588,1.995s2.949,5.885,6.588,5.885,6.588-3.251,6.588-5.885S186.246,289.543,182.608,289.543Z" transform="translate(-138.734 -234.747)" fill="#17100d"/>
      <path id="Trazado_14" data-name="Trazado 14" d="M171.464,261.964c-2.225-1.619-11.936,7.215-17.871,16.926s8.7,9.239,8.7,9.239C179.219,286.038,173.689,263.582,171.464,261.964Z" transform="translate(-137.579 -233.405)" fill="#17100d"/>
      <path id="Trazado_15" data-name="Trazado 15" d="M208.709,278.89c-5.935-9.711-15.646-18.544-17.871-16.926s-7.755,24.074,9.171,26.164C200.01,288.129,214.643,288.6,208.709,278.89Z" transform="translate(-139.322 -233.405)" fill="#17100d"/>
      <path id="Trazado_16" data-name="Trazado 16" d="M166.635,280.785a4.059,4.059,0,1,1,4.059-4.059A4.06,4.06,0,0,1,166.635,280.785Z" transform="translate(-138.083 -233.933)" fill="#fff"/>
      <path id="Trazado_17" data-name="Trazado 17" d="M195.235,280.785a4.059,4.059,0,1,1,4.059-4.059A4.06,4.06,0,0,1,195.235,280.785Z" transform="translate(-139.468 -233.933)" fill="#fff"/>
      <path id="Trazado_18" data-name="Trazado 18" d="M168.98,300.58a10.04,10.04,0,0,0,3.141,1.36,23.338,23.338,0,0,0,3.332.669,58.6,58.6,0,0,0,13.623-.007,23.5,23.5,0,0,0,3.331-.669,10.167,10.167,0,0,0,3.146-1.353,7.756,7.756,0,0,1-2.822,2.179,16.541,16.541,0,0,1-3.381,1.226,30.953,30.953,0,0,1-14.169,0,16.476,16.476,0,0,1-3.382-1.225A7.7,7.7,0,0,1,168.98,300.58Z" transform="translate(-138.393 -235.284)" fill="#17100d"/>
      <path id="Trazado_19" data-name="Trazado 19" d="M182.917,296.7a9.2,9.2,0,0,1,.509,3.185,9.1,9.1,0,0,1-.509,3.186,9.078,9.078,0,0,1-.509-3.186A9.178,9.178,0,0,1,182.917,296.7Z" transform="translate(-139.043 -235.097)" fill="#17100d"/>
    </g>
    <g id="Grupo_52" data-name="Grupo 52" transform="translate(280.053 2548.529)">
      <g id="Grupo_3" data-name="Grupo 3">
        <path id="Trazado_6" data-name="Trazado 6" d="M486.557,261.526c0,5.262-3.617,8.974-10.712,8.974H468.61v14.1h-2.631V252.646h9.866C482.94,252.646,486.557,256.545,486.557,261.526Zm-2.631.047c0-4.041-2.866-6.766-8.081-6.766H468.61v13.531h7.236C481.06,268.339,483.926,266.084,483.926,261.573Z" transform="translate(-465.979 -247.008)" fill="#363434"/>
        <path id="Trazado_7" data-name="Trazado 7" d="M519.484,288.271a6.783,6.783,0,0,1-2.725.658c-1.973,0-3.664-.7-3.664-3.665v-.093c-2.725,2.208-5.732,3.805-8.458,3.805-3.852,0-6.437-2.443-6.437-5.779,0-4.51,4.041-6.343,10.524-8.175l4.37-1.222v-2.537c0-3.007-.658-6.2-4.417-6.2-3.147,0-5.309.893-8.645,4.98l-1.786-1.362c2.913-3.665,6.3-5.826,10.384-5.826,5.262,0,7,2.49,7,8.458v13.625c0,1.362.422,1.926,1.456,1.926a5.267,5.267,0,0,0,2.067-.564Zm-14.8-1.456c2.678,0,5.168-1.551,8.41-3.994v-6.954l-3.477.987c-6.3,1.786-8.88,3.383-8.88,6.343,0,2.725,1.832,3.664,3.947,3.664Z" transform="translate(-477.436 -250.637)" fill="#363434"/>
        <path id="Trazado_8" data-name="Trazado 8" d="M544.881,262.853c5.309,0,6.483,3.1,6.483,7.47v17.9h-2.537V270.417c0-3.617-1.128-5.356-4.322-5.356-2.585,0-5.169,1.268-8.411,3.9v19.263h-2.537V263.793h2.067l.376,2.866c2.959-2.49,6.014-3.806,8.926-3.806Z" transform="translate(-490.008 -250.637)" fill="#363434"/>
        <path id="Trazado_9" data-name="Trazado 9" d="M584.5,243.9v37.587h-2.067l-.282-2.255a10.984,10.984,0,0,1-7.564,3.2c-5.638,0-9.538-4.652-9.538-12.545,0-9.115,4.886-13.766,11.793-13.766a12.08,12.08,0,0,1,5.168,1.081V243.9Zm-16.866,25.935c0,7.706,3.617,10.336,6.906,10.336,3.007,0,4.793-.987,7.424-3.054V259.355a10.214,10.214,0,0,0-5.121-1.128c-6.531,0-9.209,5.027-9.209,11.652Z" transform="translate(-501.205 -243.897)" fill="#363434"/>
        <path id="Trazado_10" data-name="Trazado 10" d="M620.888,288.271a6.783,6.783,0,0,1-2.725.658c-1.972,0-3.664-.7-3.664-3.665v-.093c-2.725,2.208-5.732,3.805-8.457,3.805-3.853,0-6.437-2.443-6.437-5.779,0-4.51,4.041-6.343,10.525-8.175L614.5,273.8v-2.537c0-3.007-.658-6.2-4.417-6.2-3.147,0-5.309.893-8.644,4.98l-1.785-1.362c2.912-3.665,6.3-5.826,10.383-5.826,5.262,0,7,2.49,7,8.458v13.625c0,1.362.423,1.926,1.456,1.926a5.265,5.265,0,0,0,2.067-.564Zm-14.8-1.456c2.678,0,5.168-1.551,8.41-3.994v-6.954l-3.477.987c-6.3,1.786-8.88,3.383-8.88,6.343,0,2.725,1.832,3.664,3.947,3.664Z" transform="translate(-513.491 -250.637)" fill="#363434"/>
      </g>
    </g>
    <g id="Grupo_54" data-name="Grupo 54" transform="translate(148.603 2554.167)">
      <g id="Grupo_1" data-name="Grupo 1" transform="translate(0)">
        <path id="Trazado_1" data-name="Trazado 1" d="M296.865,252.646V284.6h-8.222v-8.457l.47-10.243-6.484,10.947h-6.39l-6.625-11.182.611,10.478V284.6H262V252.646h7.987l9.444,15.646,9.444-15.646Z" transform="translate(-262.003 -252.646)" fill="#9eb934"/>
        <path id="Trazado_2" data-name="Trazado 2" d="M333.06,281.878c3.147,0,5.59-1.362,8.269-3.1l2.209,5.168a15.468,15.468,0,0,1-10.524,3.806c-9.632,0-14-6.108-14-13.861,0-8.175,4.557-13.954,14-13.954,7.329,0,11.135,4.135,11.182,11.276a15.192,15.192,0,0,1-.61,4.134H327.093C327.422,279.67,329.114,281.878,333.06,281.878Zm3.242-11.887v-.7c-.047-2.584-1.456-3.946-3.758-3.946-3.1,0-4.557,1.927-5.168,4.7Z" transform="translate(-282.273 -255.238)" fill="#9eb934"/>
        <path id="Trazado_3" data-name="Trazado 3" d="M377.355,267.9a24.132,24.132,0,0,0-8.833,1.409V287.26h-8.175V260.574h6.061l1.221,3.148a14.351,14.351,0,0,1,9.679-3.712Z" transform="translate(-296.97 -255.264)" fill="#9eb934"/>
        <path id="Trazado_4" data-name="Trazado 4" d="M385.2,273.891c0-7.329,4.181-13.954,14.753-13.954a19.425,19.425,0,0,1,7.376,1.5l-1.551,5.638a15.85,15.85,0,0,0-5.826-1.269c-4.088,0-6.484,2.725-6.484,8.034s2.161,8.034,5.779,8.034a13.3,13.3,0,0,0,6.953-2.255l2.209,5.168a15.514,15.514,0,0,1-9.162,2.961C389.574,287.752,385.2,281.644,385.2,273.891Z" transform="translate(-305.809 -255.238)" fill="#9eb934"/>
        <path id="Trazado_5" data-name="Trazado 5" d="M445.759,286.905a23.8,23.8,0,0,1-5.074.611c-2.725.047-5.027-.611-6.155-2.913a13.446,13.446,0,0,1-8.269,2.96c-4.369,0-7.376-2.96-7.376-6.578,0-6.249,4.98-7.7,13.485-10.149l1.409-.423v-.188c0-3.053-1.5-4.322-3.947-4.322-2.49,0-5.309.987-9.208,3.571l-1.551-5.638a26.927,26.927,0,0,1,13.531-3.9c5.543,0,9.349,2.49,9.349,10.807v8.927c0,1.362.517,1.926,1.785,1.926a6.429,6.429,0,0,0,1.786-.235ZM429.08,281.69A8.971,8.971,0,0,0,433.731,280v-4.98l-.705.235c-4.7,1.691-6.014,2.725-6.014,4.651C427.012,281.127,427.623,281.69,429.08,281.69Z" transform="translate(-317.784 -255.238)" fill="#9eb934"/>
      </g>
    </g>
  </g>
</svg>
