<svg xmlns="http://www.w3.org/2000/svg" width="24.35" height="19.777" viewBox="0 0 24.35 19.777">
  <path id="twitter-brands" d="M21.847,53.011c.015.216.015.433.015.649a14.1,14.1,0,0,1-14.2,14.2A14.1,14.1,0,0,1,0,65.618a10.323,10.323,0,0,0,1.205.062,9.994,9.994,0,0,0,6.2-2.132,5,5,0,0,1-4.666-3.461,6.294,6.294,0,0,0,.943.077,5.278,5.278,0,0,0,1.313-.17,4.991,4.991,0,0,1-4-4.9v-.062a5.026,5.026,0,0,0,2.256.633A5,5,0,0,1,1.7,48.994a14.185,14.185,0,0,0,10.29,5.222,5.634,5.634,0,0,1-.124-1.143A5,5,0,0,1,20.5,49.658a9.825,9.825,0,0,0,3.167-1.205,4.977,4.977,0,0,1-2.194,2.75,10,10,0,0,0,2.874-.772A10.728,10.728,0,0,1,21.847,53.011Z" transform="translate(0 -48.082)" fill="#363434"/>
</svg>
